# xmcd
#
# Track frame offsets: 
#        150
#        14968
#        27451
#        42984
#        55401
#        66795
#        80173
#        92378
#        106109
#        116688
#        128824
#        139190
#
# Disc length: 1997 seconds
#
# Revision: 0
# Processed by: cddbd v1.5.2PL0 Copyright (c) Steve Scherf et al.
# Submitted via: ExactAudioCopy v1.3
#
DISCID=a907cb0c
DTITLE=The Platters - Greatest Hits
DYEAR=1998
DGENRE=Blues
TTITLE0=The Great Pretender
TTITLE1=Only You
TTITLE2=My Prayer
TTITLE3=Twilight Time
TTITLE4=Smoke Gets In Your Eyes
TTITLE5=I'm Sorry
TTITLE6=With This Ring
TTITLE7=Harbour Lights
TTITLE8=He's Mine
TTITLE9=The Magic Touch
TTITLE10=One In A Million
TTITLE11=Red Sails In The Sunset
EXTD=
EXTT0=
EXTT1=
EXTT2=
EXTT3=
EXTT4=
EXTT5=
EXTT6=
EXTT7=
EXTT8=
EXTT9=
EXTT10=
EXTT11=
PLAYORDER=
